<svg id="Layer_1" data-name="Layer 1" xmlns="http://www.w3.org/2000/svg" viewBox="0 0 83.66 97.94"><path d="M145,113.1c.48-3.35-1.36-6.13-3-8.36-1.86-2.51-11.1-1.89-9.89,7.39.43,3.34,2.06,6.42,5.51,7.09C140.74,119.83,144.45,116.9,145,113.1Z" transform="translate(-110.44 -58.77)" style="fill:none;stroke:#000;stroke-linecap:round;stroke-linejoin:round"/><path d="M159.35,112.28c1.41-1.88,2.35-6.83.45-9.41-1.62-2.2-5-5.09-8.08-2.2-3.32,4.07-2.36,10.62,2,13.08C155.72,114.86,158.48,113.45,159.35,112.28Z" transform="translate(-110.44 -58.77)" style="fill:none;stroke:#000;stroke-linecap:round;stroke-linejoin:round"/><path d="M120.58,85.33c-.44-3.53-1.19-6.93-3.91-10.17-1.29,4.88-.89,9.19-.16,13.52" transform="translate(-110.44 -58.77)" style="fill:none;stroke:#000;stroke-linecap:round;stroke-linejoin:round"/><path d="M143.8,76c.67-4.15-.32-8.16-1-12.21-.08-.55-.83-4.15-1.94-4.46s-2,.56-2.63,1.57c-1,1.45-4.13,9.4-5.11,12.61a11.33,11.33,0,0,1-.61,1.77,32.14,32.14,0,0,0-9.1,3.35c-1.8-5.37-4.53-12.71-6.37-13s-3,5.52-3.68,8.47c-1.35,5.78-1.11,11.62-.72,17.47a2.81,2.81,0,0,1,0,1c-2.49,8.6-2.31,25.22.66,36.23,2.46,9.1,17.51,28.43,49.62,27.43,14.65-.45,21.29-7.49,25.46-12.17,3.51-4.25,5.86-9.63,5-15.83-.68-5-2.81-8.9-7.05-11.43a62,62,0,0,0-11-4.88,23.17,23.17,0,0,1-10.34-6.63,218.59,218.59,0,0,1-13.84-19C148.62,82.44,148,80,143.8,76Z" transform="translate(-110.44 -58.77)" style="fill:none;stroke:#000;stroke-linecap:round;stroke-linejoin:round"/><path d="M151,92.51a4.12,4.12,0,0,0-7.42.48" transform="translate(-110.44 -58.77)" style="fill:none;stroke:#000;stroke-linecap:round;stroke-linejoin:round"/><path d="M136.86,93.23c-2.82-1.59-6,.42-6.94,4.55" transform="translate(-110.44 -58.77)" style="fill:none;stroke:#000;stroke-linecap:round;stroke-linejoin:round"/><path d="M141.3,73.1a20,20,0,0,0-1.15-6.54c-2.46,2.59-1.92,6.12-2.44,9.41" transform="translate(-110.44 -58.77)" style="fill:none;stroke:#000;stroke-linecap:round;stroke-linejoin:round"/><circle cx="30.86" cy="53.92" r="2.96" style="fill:#231f20;stroke:#000;stroke-linecap:round;stroke-linejoin:round"/><circle cx="47.08" cy="49.18" r="2.96" style="fill:#231f20;stroke:#000;stroke-linecap:round;stroke-linejoin:round"/></svg>