<svg xmlns="http://www.w3.org/2000/svg" viewBox="0 0 118.11 148.49"><g id="Layer_1" data-name="Layer 1"><path d="M79.75,142.55c4.7,1.8,17.06,1.86,17.64.76,1.09-2-4.66-5.23-6.78-6.23a26.87,26.87,0,0,0,4.07-11.34c25.37-16.61,9.06-40.11,5.39-46.2a13.54,13.54,0,0,1-2-4.49c.71-.18,1.41-.39,2.12-.64a28.23,28.23,0,0,0,12.28-7.81c3.8-4.32,5.94-9.19,4.83-15.1-.61-3.2-2.27-5.74-5.35-6.74s-6.58-1.54-10.09-2.29a1.6,1.6,0,0,1-.69-.31,9.84,9.84,0,0,1-1.48-1.62c-1.31-1.7-5-7.49-5-7.49L94,31.64c-1.82-3.16-4-6.2-6.1-9.2A30.87,30.87,0,0,0,81.26,16c.07-.3-.24-9.59-1.6-13.82-.27-.84-.58-1.54-1.31-1.66C76,.11,71.93,13.37,71.93,13.37c-1.28-3.49-3.13-7.86-4.46-9.51-.64-.79-1.81-2.7-2.88-1.4-2.61,3.18-2.17,11.29-2.05,17a16.86,16.86,0,0,0-4,6.13C55.38,32.84,53.79,40.52,52,48.16c-1.19,5-2.31,10.1-3.56,15.13-1.3,5.21-2.22,10.5-3.2,15.77-.82,4.41-1.67,8.82-2.15,13.28A52.66,52.66,0,0,0,42.85,104c.23,2,.36,4,.73,6,.23,1.25,1.31,2.21,1,3.65a17.17,17.17,0,0,0-.49,5.52c.16,1.26,2,3.75,2.51,3.47h-.05c.49,1.65,1.3,2.93,1.82,2.29-1,5-4.44,8.15-8.47,10.78-4.59,3-9.77,4.21-15.1,5-2.18.33-6.79-3-5.14-1.89,0,0-1.79-1.22-5-3-2.51-1.42-8.12-4.56-10.57-3.17-3,1.73-8,15.08,4,15.36a29.42,29.42,0,0,0,10.71-2.29c1.34-.53,2.51-1.47,4-1.71,2.64-.44,5.32-.52,8-.94a40.15,40.15,0,0,0,18.12-7.49c1.5-1.12,2.44-2.87,4.29-3.53l.17,0c1,3.23,1.53,6.6,2.65,9.9.67,2,3.06,2.17,4.83,2.72,4.91,1.53,16.33,2.8,17.07.44a2,2,0,0,0,.07-.89s-.22-1,.25-1.43S79.75,142.55,79.75,142.55Z" transform="translate(0 0)" style="fill:none;stroke:#000;stroke-linecap:round;stroke-linejoin:round"/></g><g id="Layer_2" data-name="Layer 2"><path d="M78,144.16a3.27,3.27,0,0,0-.46-1.18c-.79-1.37-6-3.41-7.14-4.1a30.72,30.72,0,0,0,1.42-8.47c1.12.06,2.82.09,4.29,0-.15,2,.83,10.31,2.44,11.5a4.54,4.54,0,0,0,1.19.61" transform="translate(0 0)" style="fill:none;stroke:#ed1c24;stroke-linecap:round;stroke-linejoin:round"/><path d="M5.23,133.19c2.22.22,9,4.14,10.63,4.65-4.18-1.06-8.92-1.05-12.95-2.49L8.55,138c-.92.4-5.19-.33-5.81.58-.31.46,7.78,2.38,11.12,2.74-2.39.46-4.18-.2-6.59,0a9.21,9.21,0,0,0-4.08.82c.85-.67,7,1,7,1.34s-7.64.66-7.64.66c1.54.22,2.89,1.23,4.33,1.41a21.93,21.93,0,0,0,10.32-.77l-8.3,2.32" transform="translate(0 0)" style="fill:none;stroke:#ed1c24;stroke-linecap:round;stroke-linejoin:round"/><path d="M46.58,122.43a8,8,0,0,1-.27-1.21,31.41,31.41,0,0,1-.4-5.13" transform="translate(0 0)" style="fill:none;stroke:#ed1c24;stroke-linecap:round;stroke-linejoin:round"/><path d="M47.74,116.09c-.3,2.93,1.11,8.17.9,8.67a.89.89,0,0,1-.14.24" transform="translate(0 0)" style="fill:none;stroke:#ed1c24;stroke-linecap:round;stroke-linejoin:round"/><path d="M73.39,17.89a42.65,42.65,0,0,0-1.46-4.52" transform="translate(0 0)" style="fill:none;stroke:#ed1c24;stroke-linecap:round;stroke-linejoin:round"/><path d="M98.09,75.05a39.29,39.29,0,0,1-12.5.78,23.14,23.14,0,0,1-13.26-5.26,32.43,32.43,0,0,1-9-11.43c-1.5-3-3.59-10.3-4-11.46" transform="translate(0 0)" style="fill:none;stroke:#ed1c24;stroke-linecap:round;stroke-linejoin:round"/><path d="M94.68,125.74c-.68.44-1.38.88-2.12,1.31" transform="translate(0 0)" style="fill:none;stroke:#ed1c24;stroke-linecap:round;stroke-linejoin:round"/><path d="M47.74,87.2c-.47,1.91-.75,3.85-1,5.8-.43,3-1.89,19.5-2.08,19.77" transform="translate(0 0)" style="fill:none;stroke:#ed1c24;stroke-linecap:round;stroke-linejoin:round"/><path d="M93.9,34.73c-2.31-1.57-3.85-.48-4,2.32a6.76,6.76,0,0,0,1.51,5,3.56,3.56,0,0,0,4,1.33,3,3,0,0,0,2.48-3C97.87,38.34,94.45,35.1,93.9,34.73Z" transform="translate(0 0)" style="fill:none;stroke:#ed1c24;stroke-linecap:round;stroke-linejoin:round"/><path d="M69,17.7c-.14-.6-1.66-6.77-2.45-7.13-1-.47-.82,1.15-.83,1.58,0,2.94-.08,4.39-.17,6.64" transform="translate(0 0)" style="fill:none;stroke:#ed1c24;stroke-linecap:round;stroke-linejoin:round"/><path d="M79,15.47c0-2.22-.29-8.42-.58-10.63A79,79,0,0,0,77,14.18" transform="translate(0 0)" style="fill:none;stroke:#ed1c24;stroke-linecap:round;stroke-linejoin:round"/><path d="M76.3,15.3a5.1,5.1,0,0,0-3.16.17" transform="translate(0 0)" style="fill:none;stroke:#ed1c24;stroke-linecap:round;stroke-linejoin:round"/><circle cx="95.15" cy="38.95" r="2" style="fill:#ed1c24;stroke:#ed1c24;stroke-linecap:round;stroke-linejoin:round"/><path d="M81,38.88c-1.83-1-3.43-.13-4,2.16a7.63,7.63,0,0,0,.93,6,4.26,4.26,0,0,0,4.68,2,3.48,3.48,0,0,0,3.12-2.65C86.5,42.6,82.39,39.67,81,38.88Z" transform="translate(0 0)" style="fill:none;stroke:#ed1c24;stroke-linecap:round;stroke-linejoin:round"/><path d="M76,29.91c-2.8-.17-4,1.58-4.65,3.82" transform="translate(0 0)" style="fill:none;stroke:#ed1c24;stroke-linecap:round;stroke-linejoin:round"/><path d="M89.69,25.7c-1-.57-3.14-.32-3.43,1.39" transform="translate(0 0)" style="fill:none;stroke:#ed1c24;stroke-linecap:round;stroke-linejoin:round"/><circle cx="83.3" cy="43.9" r="2" style="fill:#ed1c24;stroke:#ed1c24;stroke-linecap:round;stroke-linejoin:round"/><path d="M70.41,138.88a12.73,12.73,0,0,1-.61,1.49" transform="translate(0 0)" style="fill:none;stroke:#ed1c24;stroke-linecap:round;stroke-linejoin:round"/><path d="M71.65,127.71a12.73,12.73,0,0,1,.18,2.7" transform="translate(0 0)" style="fill:none;stroke:#ed1c24;stroke-linecap:round;stroke-linejoin:round"/><path d="M84.6,129a29.63,29.63,0,0,1-8.48,1.33" transform="translate(0 0)" style="fill:none;stroke:#ed1c24;stroke-linecap:round;stroke-linejoin:round"/><path d="M53.39,132a26.16,26.16,0,0,0-1.17-3.12c-.5-1.1-1.42-2.21-1.41-3.32,0-3-.84-6-.39-9" transform="translate(0 0)" style="fill:none;stroke:#ed1c24;stroke-linecap:round;stroke-linejoin:round"/><path d="M63.35,89.85c-.84,5.93-2.78,11.6-4.05,17.43-.62,2.83-1.44,6.35-.41,9,.13.32.35.66.46,1,.23.71.49,1.56-.34,2a1.7,1.7,0,0,1-2-.47,10.47,10.47,0,0,0-2.13-2.06c-2.21,2.55.44,6.34-2.45,8.12-1,.59-2.76,1.56-3.83-.08" transform="translate(0 0)" style="fill:none;stroke:#ed1c24;stroke-linecap:round;stroke-linejoin:round"/></g></svg>