<svg xmlns="http://www.w3.org/2000/svg" viewBox="0 0 115.1 140.52"><g id="Exterior"><path d="M21.5,44c0,4.81.11,9.8.05,14.6,0,3.5-.13,7-.39,10.49-.1,1.42-.38,4.71-.59,7.21-.76,1.39-11,22.47-12.87,25.81a23.47,23.47,0,0,0-2.09,4.56c-.16.53-.44,1.29,0,1.56.78.45,4.66-4,5.7-5.66.15.5-2.68,5.71-3.83,7.94-.74,1.45-2.37,5.32-2.09,5.56a.68.68,0,0,0,.89-.11c.92-.78,7-8.56,7.58-9.29-.93,1.56-3.53,10.84-2.85,12-2,4.43-6.27,13.62-9.18,17.5L.32,138.19a.36.36,0,0,0,.16.55,30.65,30.65,0,0,0,8.21,1.45,44.57,44.57,0,0,0,6.22-.36c1.73-.32,3.47-.7,5.19-1.08,3.44-.75,6.87-1.53,10.31-2.28a35,35,0,0,1,5.56-.8,22.05,22.05,0,0,1,4.93.3,42,42,0,0,1,6.19,1.6,45.28,45.28,0,0,0,10.32,2.6,24.6,24.6,0,0,0,8.48-.76c3.12-.81,6.19-1.8,9.38-2.34a51.06,51.06,0,0,1,6.85-.66c3.28-.11,6.56-.09,9.85,0a38.34,38.34,0,0,0,7-.17,32.14,32.14,0,0,0,6.51-1.7,21.88,21.88,0,0,0,7.36-4.83,9.47,9.47,0,0,0,2-2.6,48.84,48.84,0,0,1-5.2-7.22A50.77,50.77,0,0,1,103.43,103c-.43-2.46-.86-4.93-1.23-7.4-.34-2.27-.61-4.56-.91-6.84s-.61-4.44-.91-6.66c-.39-2.87-.86-5.74-1.53-8.56a78,78,0,0,0-3.36-11,55.7,55.7,0,0,0-5.82-10.81,125.28,125.28,0,0,0-8-10.23c-3-3.5-5.94-7-8.66-10.67a47.37,47.37,0,0,1-6-10.75,53.12,53.12,0,0,0-3.5-8,26.63,26.63,0,0,0-7.31-8.38A17.87,17.87,0,0,0,47.19.33a23.09,23.09,0,0,0-6,.29,19.91,19.91,0,0,0-9.74,4.61,28.44,28.44,0,0,0-8.75,14.31A61,61,0,0,0,21,31.85l-1,.55c-1.94,1.06-3.92,2-5.76,3.27a9.93,9.93,0,0,0-3.28,3.2,1.73,1.73,0,0,0,.09,2,4.63,4.63,0,0,0,2.29,1.55,24.42,24.42,0,0,0,6.1,1.31C20.13,43.83,20.75,43.9,21.5,44Z" transform="translate(0 0)" style="fill:none;stroke:#000;stroke-linecap:round;stroke-linejoin:round;stroke-width:0.5px"/></g><g id="Interior"><path d="M32.59,16.62c-1.39-2.1-3.39-1.75-4.81-.17-1.67,1.88-1.74,6,.34,7.38C32.64,26.89,34.72,19.84,32.59,16.62Z" transform="translate(0 0)" style="fill:none;stroke:#ed1c24;stroke-linecap:round;stroke-linejoin:round;stroke-width:0.5px"/><path d="M87.77,97.16a17.49,17.49,0,0,1-.76,2.91A68.37,68.37,0,0,1,82,111.34c-.79,1.44-2.6,5.3-3.15,4.92-1.24-.85.32-5.29,1-8.25,0,0-5.72,13.09-7.65,12.47-1.77-.56,3.25-13.12,3.95-15.11-1.73,2.91-9.43,15.73-10.42,16.39a.84.84,0,0,1-1,.12c-.59-.4.09-1.5.69-3.49.71-2.36,5.6-14.79,6.15-16.12a163.6,163.6,0,0,1-9.31,16.5,11.4,11.4,0,0,1-1.82,2.1c-.36.3-.81.63-1.26.35s-.31-.81-.19-1.26a13.8,13.8,0,0,1,.46-1.55c1.23-3.19,2.53-6.37,3.71-9.58.76-2.07,1.27-4.23,2.05-6.28a45.35,45.35,0,0,0,1.71-6.67c-.93,1.53-7.5,12.46-8.75,13.37-.17.12-1.48,1.22-1.84,1a.64.64,0,0,1-.25-.75,26.32,26.32,0,0,1,.88-3.47c1.08-3.29,2.47-6.46,3.77-9.66,1.55-3.81,3-7.66,4.18-11.59S67,76.93,68,73" transform="translate(0 0)" style="fill:none;stroke:#ed1c24;stroke-linecap:round;stroke-linejoin:round;stroke-width:0.5px"/><path d="M24.66,46.24c-.82-.07-1.14.15-.91.93a3.55,3.55,0,0,0,2.83,2.37,23.63,23.63,0,0,0,5.1.61c1.32.09,10.64.12,15.42-1.16,1.8-.48,3.36-1.2,3.92-3.18.1-.34.22-.81-.1-1s-4.37.84-6.56,1.21c-1.17.19-2,.28-3.55.4-1.15.1-2.48.32-4.38.34C33.54,46.83,26.67,46.39,24.66,46.24Z" transform="translate(0 0)" style="fill:none;stroke:#ed1c24;stroke-linecap:round;stroke-linejoin:round;stroke-width:0.5px"/><path d="M42.72,46.44v3.1" transform="translate(0 0)" style="fill:none;stroke:#ed1c24;stroke-linecap:round;stroke-linejoin:round;stroke-width:0.5px"/><path d="M36.88,47v2.92" transform="translate(0 0)" style="fill:none;stroke:#ed1c24;stroke-linecap:round;stroke-linejoin:round;stroke-width:0.5px"/><path d="M42.9,16c-3.18.38-3.78,4.85-2.48,7.31a3.63,3.63,0,0,0,6.31.35C48.4,21,46.85,15.51,42.9,16Z" transform="translate(0 0)" style="fill:none;stroke:#ed1c24;stroke-linecap:round;stroke-linejoin:round;stroke-width:0.5px"/><path d="M20.57,76.27c-.11,1.15-.21,2.34-.26,2.74C20,82.42,19.58,85.83,19,89.23c-.41,2.55-.78,5.12-1.31,7.65a115.49,115.49,0,0,1-6.67,21.73" transform="translate(0 0)" style="fill:none;stroke:#ed1c24;stroke-linecap:round;stroke-linejoin:round;stroke-width:0.5px"/><path d="M21,31.85a71,71,0,0,0,8.17-4.57,15.33,15.33,0,0,0,4.72-4,12.63,12.63,0,0,0,2.31-6.73" transform="translate(0 0)" style="fill:none;stroke:#ed1c24;stroke-linecap:round;stroke-linejoin:round;stroke-width:0.5px"/><path d="M52.66,36.05c.24.57.79.85,1.2,1.26A2.12,2.12,0,0,1,53.3,41a22.11,22.11,0,0,1-7.11,2.2c-2.27.38-4.55.66-6.84.82s-4.38.27-6.57.26-4.25,0-6.38,0c-1.59,0-3.31-.13-4.9-.28" transform="translate(0 0)" style="fill:none;stroke:#ed1c24;stroke-linecap:round;stroke-linejoin:round;stroke-width:0.5px"/><line x1="32.09" y1="46.68" x2="32.18" y2="50.19" style="fill:none;stroke:#ed1c24;stroke-linecap:round;stroke-linejoin:round;stroke-width:0.5px"/><line x1="26.57" y1="46.37" x2="26.51" y2="49.52" style="fill:none;stroke:#ed1c24;stroke-linecap:round;stroke-linejoin:round;stroke-width:0.5px"/><line x1="46.97" y1="45.57" x2="47.06" y2="49" style="fill:none;stroke:#ed1c24;stroke-linecap:round;stroke-linejoin:round;stroke-width:0.5px"/></g></svg>